<?xml version="1.0" encoding="iso-8859-1"?>
<!-- Generator: Adobe Illustrator 19.0.0, SVG Export Plug-In . SVG Version: 6.00 Build 0)  -->
<svg version="1.1" id="Layer_1" xmlns="http://www.w3.org/2000/svg" xmlns:xlink="http://www.w3.org/1999/xlink" x="0px" y="0px"
	 viewBox="0 0 473.931 473.931" style="enable-background:new 0 0 473.931 473.931;" xml:space="preserve">
<circle style="fill:#ED3351;" cx="236.966" cy="236.966" r="236.966"/>
<path style="fill:#A0D9DC;" d="M230.631,334.749v83.64h12.666v-83.64H230.631z"/>
<path style="fill:#00A79E;" d="M230.234,310.128c-14.761,25.811-14.761,25.811-14.761,25.811h18.121h6.731h18.114
	c0,0,0,0-14.757-25.811H230.234z"/>
<path style="fill:#15B5AC;" d="M249.62,315.187c91.643-55.546,99.976-120.799,99.976-136.08
	c0-124.967-112.807-123.583-112.807-123.583S124.313,54.14,124.313,179.107c0,15.281,8.34,80.534,99.987,136.08H249.62z"/>
<path style="fill:#A0D9DC;" d="M146.022,185.554c-18.484-18.469,1.804-69.615,20.273-88.092
	c18.473-18.477,63.202-35.999,81.664-17.538C266.436,98.405,164.499,204.023,146.022,185.554z"/>
<g>
</g>
<g>
</g>
<g>
</g>
<g>
</g>
<g>
</g>
<g>
</g>
<g>
</g>
<g>
</g>
<g>
</g>
<g>
</g>
<g>
</g>
<g>
</g>
<g>
</g>
<g>
</g>
<g>
</g>
</svg>
